<?xml version="1.0" encoding="UTF-8" standalone="no"?>
<!DOCTYPE svg PUBLIC "-//W3C//DTD SVG 1.1//EN" "http://www.w3.org/Graphics/SVG/1.1/DTD/svg11.dtd">
<svg width="100%" height="100%" viewBox="0 0 512 512" version="1.1" xmlns="http://www.w3.org/2000/svg" xmlns:xlink="http://www.w3.org/1999/xlink" xml:space="preserve" xmlns:serif="http://www.serif.com/" style="fill-rule:evenodd;clip-rule:evenodd;stroke-linejoin:round;stroke-miterlimit:2;">
    <g transform="matrix(1,0,0,1,0,25.1125)">
        <path d="M512,416C512,451.3 483.5,480 448.1,480L64,480C28.6,480 0,451.3 0,416L0,164C0.1,148.5 7.8,134 20.5,125.2L206,-2.7C236.1,-23.4 275.8,-23.4 305.9,-2.7L491.5,125.2C504.3,134 511.9,148.5 512,164L512,416ZM64,432L448.1,432C456.9,432 464,424.9 464,416L464,224.3L309.2,341.7C277.8,365.6 234.3,365.6 202.8,341.7L48,224.3L48,416C48,424.9 55.2,432 64,432ZM463.6,164.4L278.7,36.8C265,27.4 247,27.4 233.3,36.8L48.4,164.4L231.8,303.5C246.1,314.3 265.9,314.3 280.2,303.5L463.6,164.4Z" style="fill:rgb(230,179,37);fill-rule:nonzero;"/>
    </g>
</svg>
