<?xml version="1.0" encoding="UTF-8" standalone="no"?>
<!DOCTYPE svg PUBLIC "-//W3C//DTD SVG 1.1//EN" "http://www.w3.org/Graphics/SVG/1.1/DTD/svg11.dtd">
<svg width="100%" height="100%" viewBox="0 0 512 512" version="1.1" xmlns="http://www.w3.org/2000/svg" xmlns:xlink="http://www.w3.org/1999/xlink" xml:space="preserve" xmlns:serif="http://www.serif.com/" style="fill-rule:evenodd;clip-rule:evenodd;stroke-linejoin:round;stroke-miterlimit:2;">
    <path d="M464,256C464,141.895 370.105,48 256,48C141.895,48 48,141.895 48,256C48,370.105 141.895,464 256,464C370.105,464 464,370.105 464,256ZM0,256C-0,115.563 115.563,0 256,0C396.437,-0 512,115.563 512,256C512,396.437 396.437,512 256,512C115.563,512 0,396.437 0,256ZM177.3,319.4C192.3,335 218.4,352 256,352C293.6,352 319.7,335 334.7,319.4C343.9,309.8 359.1,309.5 368.6,318.7C378.1,327.9 378.5,343.1 369.3,352.6C347.2,375.6 309.3,400 256,400C202.7,400 164.8,375.6 142.7,352.6C133.5,343 133.8,327.8 143.4,318.7C153,309.6 168.2,309.8 177.3,319.4ZM176,180C160.5,180 148,192.5 148,208L148,216C148,227 139,236 128,236C117,236 108,227 108,216L108,208C108,170.4 138.4,140 176,140C213.6,140 244,170.4 244,208L244,216C244,227 235,236 224,236C213,236 204,227 204,216L204,208C204,192.5 191.5,180 176,180ZM308,208L308,216C308,227 299,236 288,236C277,236 268,227 268,216L268,208C268,170.4 298.4,140 336,140C373.6,140 404,170.4 404,208L404,216C404,227 395,236 384,236C373,236 364,227 364,216L364,208C364,192.5 351.5,180 336,180C320.5,180 308,192.5 308,208Z" style="fill:rgb(230,179,37);fill-rule:nonzero;"/>
</svg>
