<?xml version="1.0" encoding="UTF-8" standalone="no"?>
<!DOCTYPE svg PUBLIC "-//W3C//DTD SVG 1.1//EN" "http://www.w3.org/Graphics/SVG/1.1/DTD/svg11.dtd">
<svg width="100%" height="100%" viewBox="0 0 576 512" version="1.1" xmlns="http://www.w3.org/2000/svg" xmlns:xlink="http://www.w3.org/1999/xlink" xml:space="preserve" xmlns:serif="http://www.serif.com/" style="fill-rule:evenodd;clip-rule:evenodd;stroke-linejoin:round;stroke-miterlimit:2;">
    <g transform="matrix(0.874739,0,0,0.874739,30.6244,37.3071)">
        <path d="M290.5,287.7L491.4,86.9L359,456.3L290.5,287.7ZM457.4,53L256.6,253.8L88,185.3L457.4,53ZM38.1,216.8L243.9,300.4L327.5,506.2C332.8,519.3 345.6,527.9 359.8,527.9C374.5,527.9 387.6,518.7 392.6,504.8L570.6,8C574.1,-1.8 571.6,-12.6 564.3,-20C557,-27.4 546.1,-29.8 536.3,-26.3L39.4,151.7C25.5,156.7 16.3,169.8 16.3,184.5C16.3,198.7 24.9,211.5 38,216.8L38.1,216.8Z" style="fill:rgb(230,179,37);fill-rule:nonzero;"/>
    </g>
</svg>
